<svg id="visual" viewBox="0 0 900 675" width="900" height="675" xmlns="http://www.w3.org/2000/svg" xmlns:xlink="http://www.w3.org/1999/xlink" version="1.1"><g stroke-width="1" stroke-linejoin="bevel"><path d="M454 324.5L443 282.3L403.8 330.5Z" fill="#001121" stroke="#000000"></path><path d="M443 282.3L383.8 271.3L403.8 330.5Z" fill="#00101c" stroke="#000000"></path><path d="M324.5 341.5L390.8 381.8L403.8 330.5Z" fill="#00101f" stroke="#000000"></path><path d="M403.8 330.5L447 388.8L454 324.5Z" fill="#000506" stroke="#000000"></path><path d="M390.8 381.8L447 388.8L403.8 330.5Z" fill="#001121" stroke="#000000"></path><path d="M497.3 218L441 220L443 282.3Z" fill="#00090d" stroke="#000000"></path><path d="M443 282.3L441 220L383.8 271.3Z" fill="#000f1a" stroke="#000000"></path><path d="M500.3 401.8L519.3 330.5L454 324.5Z" fill="#000d15" stroke="#000000"></path><path d="M454 324.5L516.3 275.3L443 282.3Z" fill="#000506" stroke="#000000"></path><path d="M339.5 225L338.5 272.3L383.8 271.3Z" fill="#000f1a" stroke="#000000"></path><path d="M383.8 271.3L338.5 272.3L403.8 330.5Z" fill="#000c12" stroke="#000000"></path><path d="M519.3 330.5L516.3 275.3L454 324.5Z" fill="#000a10" stroke="#000000"></path><path d="M441 220L381.8 216L383.8 271.3Z" fill="#000a10" stroke="#000000"></path><path d="M338.5 272.3L324.5 341.5L403.8 330.5Z" fill="#000d15" stroke="#000000"></path><path d="M516.3 275.3L497.3 218L443 282.3Z" fill="#000c12" stroke="#000000"></path><path d="M441 220L381.8 176.8L381.8 216Z" fill="#000709" stroke="#000000"></path><path d="M463 439L500.3 401.8L447 388.8Z" fill="#001121" stroke="#000000"></path><path d="M447 388.8L500.3 401.8L454 324.5Z" fill="#00090d" stroke="#000000"></path><path d="M381.8 216L339.5 225L383.8 271.3Z" fill="#00090d" stroke="#000000"></path><path d="M338.5 272.3L292.3 269.3L324.5 341.5Z" fill="#000d15" stroke="#000000"></path><path d="M324.5 341.5L342.5 400.8L390.8 381.8Z" fill="#000e18" stroke="#000000"></path><path d="M390.8 381.8L403.8 440L447 388.8Z" fill="#00101f" stroke="#000000"></path><path d="M519.3 330.5L554.5 288.3L516.3 275.3Z" fill="#000d15" stroke="#000000"></path><path d="M516.3 275.3L555.5 221L497.3 218Z" fill="#00090d" stroke="#000000"></path><path d="M556.5 327.5L554.5 288.3L519.3 330.5Z" fill="#000e18" stroke="#000000"></path><path d="M556.5 382.8L556.5 327.5L519.3 330.5Z" fill="#00101f" stroke="#000000"></path><path d="M342.5 400.8L403.8 440L390.8 381.8Z" fill="#000709" stroke="#000000"></path><path d="M403.8 440L463 439L447 388.8Z" fill="#000709" stroke="#000000"></path><path d="M457 154.8L381.8 176.8L441 220Z" fill="#000e18" stroke="#000000"></path><path d="M381.8 216L340.5 174.8L339.5 225Z" fill="#000d15" stroke="#000000"></path><path d="M280.3 235L292.3 269.3L339.5 225Z" fill="#00101f" stroke="#000000"></path><path d="M339.5 225L292.3 269.3L338.5 272.3Z" fill="#000709" stroke="#000000"></path><path d="M284.3 402.8L346.5 449L342.5 400.8Z" fill="#00101c" stroke="#000000"></path><path d="M552.5 439L556.5 382.8L500.3 401.8Z" fill="#000e18" stroke="#000000"></path><path d="M500.3 401.8L556.5 382.8L519.3 330.5Z" fill="#000709" stroke="#000000"></path><path d="M554.5 288.3L555.5 221L516.3 275.3Z" fill="#00101f" stroke="#000000"></path><path d="M497.3 218L457 154.8L441 220Z" fill="#000709" stroke="#000000"></path><path d="M616.8 220L555.5 221L554.5 288.3Z" fill="#00101c" stroke="#000000"></path><path d="M501.3 155.8L457 154.8L497.3 218Z" fill="#000709" stroke="#000000"></path><path d="M392.8 117.5L340.5 174.8L381.8 176.8Z" fill="#001121" stroke="#000000"></path><path d="M381.8 176.8L340.5 174.8L381.8 216Z" fill="#000506" stroke="#000000"></path><path d="M284.3 402.8L342.5 400.8L324.5 341.5Z" fill="#001121" stroke="#000000"></path><path d="M342.5 400.8L346.5 449L403.8 440Z" fill="#00101c" stroke="#000000"></path><path d="M496.3 492.3L512.3 458L463 439Z" fill="#00090d" stroke="#000000"></path><path d="M292.3 269.3L268.3 347.5L324.5 341.5Z" fill="#000c12" stroke="#000000"></path><path d="M340.5 174.8L280.3 235L339.5 225Z" fill="#000e18" stroke="#000000"></path><path d="M292.3 269.3L224 271.3L268.3 347.5Z" fill="#00101c" stroke="#000000"></path><path d="M268.3 347.5L284.3 402.8L324.5 341.5Z" fill="#00101c" stroke="#000000"></path><path d="M555.5 221L501.3 155.8L497.3 218Z" fill="#00101f" stroke="#000000"></path><path d="M459 499.3L463 439L403.8 440Z" fill="#00101c" stroke="#000000"></path><path d="M463 439L512.3 458L500.3 401.8Z" fill="#00101c" stroke="#000000"></path><path d="M512.3 458L552.5 439L500.3 401.8Z" fill="#000e18" stroke="#000000"></path><path d="M401.8 503.3L459 499.3L403.8 440Z" fill="#000a10" stroke="#000000"></path><path d="M512.3 458L553.5 501.3L552.5 439Z" fill="#00101f" stroke="#000000"></path><path d="M452 99.5L392.8 117.5L457 154.8Z" fill="#00101f" stroke="#000000"></path><path d="M457 154.8L392.8 117.5L381.8 176.8Z" fill="#000c12" stroke="#000000"></path><path d="M340.5 174.8L287.3 157.8L280.3 235Z" fill="#00090d" stroke="#000000"></path><path d="M333.5 505.3L401.8 503.3L346.5 449Z" fill="#001121" stroke="#000000"></path><path d="M346.5 449L401.8 503.3L403.8 440Z" fill="#000e18" stroke="#000000"></path><path d="M459 499.3L496.3 492.3L463 439Z" fill="#000e18" stroke="#000000"></path><path d="M631.8 383.8L627.8 348.5L556.5 382.8Z" fill="#00101f" stroke="#000000"></path><path d="M556.5 382.8L627.8 348.5L556.5 327.5Z" fill="#000e18" stroke="#000000"></path><path d="M556.5 327.5L630.8 287.3L554.5 288.3Z" fill="#000d15" stroke="#000000"></path><path d="M627.8 348.5L630.8 287.3L556.5 327.5Z" fill="#00101f" stroke="#000000"></path><path d="M555.5 221L574.5 157.8L501.3 155.8Z" fill="#000506" stroke="#000000"></path><path d="M328.5 100.5L287.3 157.8L340.5 174.8Z" fill="#000f1a" stroke="#000000"></path><path d="M280.3 235L224 271.3L292.3 269.3Z" fill="#000506" stroke="#000000"></path><path d="M229 231L224 271.3L280.3 235Z" fill="#001121" stroke="#000000"></path><path d="M268.3 347.5L233 401.8L284.3 402.8Z" fill="#000a10" stroke="#000000"></path><path d="M224 271.3L223 348.5L268.3 347.5Z" fill="#000709" stroke="#000000"></path><path d="M630.8 287.3L616.8 220L554.5 288.3Z" fill="#000a10" stroke="#000000"></path><path d="M514.3 111.5L457 154.8L501.3 155.8Z" fill="#000f1a" stroke="#000000"></path><path d="M514.3 111.5L452 99.5L457 154.8Z" fill="#000e18" stroke="#000000"></path><path d="M612.8 174.8L574.5 157.8L555.5 221Z" fill="#000a10" stroke="#000000"></path><path d="M233 401.8L268.3 450L284.3 402.8Z" fill="#000506" stroke="#000000"></path><path d="M284.3 402.8L268.3 450L346.5 449Z" fill="#000506" stroke="#000000"></path><path d="M287.3 157.8L229 231L280.3 235Z" fill="#000506" stroke="#000000"></path><path d="M223 348.5L233 401.8L268.3 347.5Z" fill="#000f1a" stroke="#000000"></path><path d="M566.5 124.5L514.3 111.5L501.3 155.8Z" fill="#00101c" stroke="#000000"></path><path d="M285.3 494.3L333.5 505.3L346.5 449Z" fill="#000d15" stroke="#000000"></path><path d="M616.8 450L631.8 383.8L556.5 382.8Z" fill="#000e18" stroke="#000000"></path><path d="M627.8 348.5L661 328.5L630.8 287.3Z" fill="#001121" stroke="#000000"></path><path d="M616.8 450L556.5 382.8L552.5 439Z" fill="#000e18" stroke="#000000"></path><path d="M616.8 220L612.8 174.8L555.5 221Z" fill="#000709" stroke="#000000"></path><path d="M574.5 157.8L566.5 124.5L501.3 155.8Z" fill="#000506" stroke="#000000"></path><path d="M673 164.8L612.8 174.8L616.8 220Z" fill="#00101f" stroke="#000000"></path><path d="M516.3 562.5L553.5 501.3L496.3 492.3Z" fill="#00101f" stroke="#000000"></path><path d="M496.3 492.3L553.5 501.3L512.3 458Z" fill="#00101c" stroke="#000000"></path><path d="M461 565.5L496.3 492.3L459 499.3Z" fill="#000e18" stroke="#000000"></path><path d="M404.8 556.5L459 499.3L401.8 503.3Z" fill="#000d15" stroke="#000000"></path><path d="M400.8 66.3L328.5 100.5L392.8 117.5Z" fill="#000c12" stroke="#000000"></path><path d="M392.8 117.5L328.5 100.5L340.5 174.8Z" fill="#000c12" stroke="#000000"></path><path d="M287.3 157.8L224 158.8L229 231Z" fill="#000e18" stroke="#000000"></path><path d="M623.8 106.5L566.5 124.5L574.5 157.8Z" fill="#000a10" stroke="#000000"></path><path d="M268.3 450L285.3 494.3L346.5 449Z" fill="#000f1a" stroke="#000000"></path><path d="M236 511.3L285.3 494.3L268.3 450Z" fill="#001121" stroke="#000000"></path><path d="M631.8 383.8L661 328.5L627.8 348.5Z" fill="#00101c" stroke="#000000"></path><path d="M630.8 287.3L670 227L616.8 220Z" fill="#000506" stroke="#000000"></path><path d="M553.5 501.3L616.8 450L552.5 439Z" fill="#000f1a" stroke="#000000"></path><path d="M631.8 383.8L678 401.8L661 328.5Z" fill="#000709" stroke="#000000"></path><path d="M661 328.5L663 281.3L630.8 287.3Z" fill="#000506" stroke="#000000"></path><path d="M328.5 100.5L293.3 110.5L287.3 157.8Z" fill="#000709" stroke="#000000"></path><path d="M516.3 55.3L443 68.3L452 99.5Z" fill="#001121" stroke="#000000"></path><path d="M452 99.5L400.8 66.3L392.8 117.5Z" fill="#000e18" stroke="#000000"></path><path d="M516.3 55.3L452 99.5L514.3 111.5Z" fill="#000709" stroke="#000000"></path><path d="M443 68.3L400.8 66.3L452 99.5Z" fill="#000f1a" stroke="#000000"></path><path d="M328.5 100.5L268.3 53.3L293.3 110.5Z" fill="#000c12" stroke="#000000"></path><path d="M167.8 436L227 452L233 401.8Z" fill="#00101c" stroke="#000000"></path><path d="M233 401.8L227 452L268.3 450Z" fill="#000f1a" stroke="#000000"></path><path d="M327.5 571.5L404.8 556.5L333.5 505.3Z" fill="#00090d" stroke="#000000"></path><path d="M333.5 505.3L404.8 556.5L401.8 503.3Z" fill="#000e18" stroke="#000000"></path><path d="M293.3 110.5L224 158.8L287.3 157.8Z" fill="#00101f" stroke="#000000"></path><path d="M229 231L179.8 218L224 271.3Z" fill="#000f1a" stroke="#000000"></path><path d="M224 271.3L159.8 278.3L223 348.5Z" fill="#000e18" stroke="#000000"></path><path d="M719.3 273.3L670 227L663 281.3Z" fill="#00101f" stroke="#000000"></path><path d="M663 281.3L670 227L630.8 287.3Z" fill="#000f1a" stroke="#000000"></path><path d="M561.5 61.3L514.3 111.5L566.5 124.5Z" fill="#000e18" stroke="#000000"></path><path d="M404.8 556.5L461 565.5L459 499.3Z" fill="#00101c" stroke="#000000"></path><path d="M224 158.8L179.8 218L229 231Z" fill="#000e18" stroke="#000000"></path><path d="M223 348.5L163.8 395.8L233 401.8Z" fill="#000709" stroke="#000000"></path><path d="M572.5 563.5L620.8 492.3L553.5 501.3Z" fill="#000d15" stroke="#000000"></path><path d="M553.5 501.3L620.8 492.3L616.8 450Z" fill="#000709" stroke="#000000"></path><path d="M616.8 450L678 401.8L631.8 383.8Z" fill="#000d15" stroke="#000000"></path><path d="M675 450L678 401.8L616.8 450Z" fill="#000f1a" stroke="#000000"></path><path d="M661 328.5L719.3 273.3L663 281.3Z" fill="#000709" stroke="#000000"></path><path d="M179.8 218L159.8 278.3L224 271.3Z" fill="#00101c" stroke="#000000"></path><path d="M461 565.5L516.3 562.5L496.3 492.3Z" fill="#00101f" stroke="#000000"></path><path d="M159.8 278.3L159.8 343.5L223 348.5Z" fill="#000e18" stroke="#000000"></path><path d="M561.5 61.3L566.5 124.5L623.8 106.5Z" fill="#000d15" stroke="#000000"></path><path d="M561.5 61.3L516.3 55.3L514.3 111.5Z" fill="#000f1a" stroke="#000000"></path><path d="M397.8 0L346.5 42.3L400.8 66.3Z" fill="#000506" stroke="#000000"></path><path d="M159.8 343.5L163.8 395.8L223 348.5Z" fill="#00101f" stroke="#000000"></path><path d="M165.8 517.3L236 511.3L227 452Z" fill="#00090d" stroke="#000000"></path><path d="M227 452L236 511.3L268.3 450Z" fill="#001121" stroke="#000000"></path><path d="M285.3 494.3L327.5 571.5L333.5 505.3Z" fill="#000c12" stroke="#000000"></path><path d="M400.8 66.3L346.5 42.3L328.5 100.5Z" fill="#00101c" stroke="#000000"></path><path d="M213 112.5L181.8 156.8L224 158.8Z" fill="#001121" stroke="#000000"></path><path d="M397.8 0L400.8 66.3L443 68.3Z" fill="#000a10" stroke="#000000"></path><path d="M275.3 574.5L327.5 571.5L285.3 494.3Z" fill="#000a10" stroke="#000000"></path><path d="M439 621.8L497.3 608.8L461 565.5Z" fill="#00090d" stroke="#000000"></path><path d="M623.8 106.5L574.5 157.8L612.8 174.8Z" fill="#000c12" stroke="#000000"></path><path d="M666 121.5L623.8 106.5L612.8 174.8Z" fill="#00101c" stroke="#000000"></path><path d="M720.3 225L673 164.8L670 227Z" fill="#000e18" stroke="#000000"></path><path d="M670 227L673 164.8L616.8 220Z" fill="#000f1a" stroke="#000000"></path><path d="M620.8 492.3L675 450L616.8 450Z" fill="#00101f" stroke="#000000"></path><path d="M163.8 395.8L167.8 436L233 401.8Z" fill="#000a10" stroke="#000000"></path><path d="M224 158.8L181.8 156.8L179.8 218Z" fill="#000506" stroke="#000000"></path><path d="M116.5 232L120.5 291.3L159.8 278.3Z" fill="#000e18" stroke="#000000"></path><path d="M213 112.5L224 158.8L293.3 110.5Z" fill="#000c12" stroke="#000000"></path><path d="M268.3 53.3L213 112.5L293.3 110.5Z" fill="#000709" stroke="#000000"></path><path d="M516.3 562.5L572.5 563.5L553.5 501.3Z" fill="#000c12" stroke="#000000"></path><path d="M620.8 492.3L667 510.3L675 450Z" fill="#001121" stroke="#000000"></path><path d="M573.5 615.8L572.5 563.5L516.3 562.5Z" fill="#000e18" stroke="#000000"></path><path d="M497.3 608.8L516.3 562.5L461 565.5Z" fill="#000e18" stroke="#000000"></path><path d="M734.3 328.5L661 328.5L678 401.8Z" fill="#00101f" stroke="#000000"></path><path d="M734.3 328.5L719.3 273.3L661 328.5Z" fill="#001121" stroke="#000000"></path><path d="M346.5 42.3L268.3 53.3L328.5 100.5Z" fill="#000506" stroke="#000000"></path><path d="M673 164.8L666 121.5L612.8 174.8Z" fill="#00101f" stroke="#000000"></path><path d="M623.8 106.5L616.8 49.3L561.5 61.3Z" fill="#00101f" stroke="#000000"></path><path d="M718.3 119.5L666 121.5L673 164.8Z" fill="#000a10" stroke="#000000"></path><path d="M719.3 273.3L720.3 225L670 227Z" fill="#00101c" stroke="#000000"></path><path d="M236 511.3L275.3 574.5L285.3 494.3Z" fill="#000f1a" stroke="#000000"></path><path d="M439 621.8L461 565.5L404.8 556.5Z" fill="#000a10" stroke="#000000"></path><path d="M211 564.5L275.3 574.5L236 511.3Z" fill="#000e18" stroke="#000000"></path><path d="M116.5 232L159.8 278.3L179.8 218Z" fill="#000e18" stroke="#000000"></path><path d="M159.8 278.3L120.5 291.3L159.8 343.5Z" fill="#00101f" stroke="#000000"></path><path d="M159.8 343.5L118.5 393.8L163.8 395.8Z" fill="#000f1a" stroke="#000000"></path><path d="M163.8 395.8L118.5 393.8L167.8 436Z" fill="#000506" stroke="#000000"></path><path d="M386.8 616.8L404.8 556.5L327.5 571.5Z" fill="#000f1a" stroke="#000000"></path><path d="M730.3 398.8L734.3 328.5L678 401.8Z" fill="#00090d" stroke="#000000"></path><path d="M719.3 273.3L789.5 231L720.3 225Z" fill="#00101f" stroke="#000000"></path><path d="M339.5 612.8L386.8 616.8L327.5 571.5Z" fill="#001121" stroke="#000000"></path><path d="M456 0L443 68.3L516.3 55.3Z" fill="#000d15" stroke="#000000"></path><path d="M456 0L397.8 0L443 68.3Z" fill="#000709" stroke="#000000"></path><path d="M346.5 42.3L323.5 0L268.3 53.3Z" fill="#000506" stroke="#000000"></path><path d="M497.3 0L516.3 55.3L565.5 0Z" fill="#000e18" stroke="#000000"></path><path d="M497.3 0L456 0L516.3 55.3Z" fill="#000a10" stroke="#000000"></path><path d="M386.8 616.8L439 621.8L404.8 556.5Z" fill="#00090d" stroke="#000000"></path><path d="M629.8 564.5L620.8 492.3L572.5 563.5Z" fill="#000506" stroke="#000000"></path><path d="M629.8 564.5L667 510.3L620.8 492.3Z" fill="#00101c" stroke="#000000"></path><path d="M727.3 436L730.3 398.8L678 401.8Z" fill="#00090d" stroke="#000000"></path><path d="M275.3 624.8L339.5 612.8L327.5 571.5Z" fill="#00090d" stroke="#000000"></path><path d="M398.8 675L451 675L439 621.8Z" fill="#00090d" stroke="#000000"></path><path d="M727.3 436L678 401.8L675 450Z" fill="#00101c" stroke="#000000"></path><path d="M565.5 0L516.3 55.3L561.5 61.3Z" fill="#000f1a" stroke="#000000"></path><path d="M106.5 349.5L118.5 393.8L159.8 343.5Z" fill="#000c12" stroke="#000000"></path><path d="M167.8 436L165.8 517.3L227 452Z" fill="#000d15" stroke="#000000"></path><path d="M117.5 163.8L116.5 232L179.8 218Z" fill="#000506" stroke="#000000"></path><path d="M120.5 291.3L106.5 349.5L159.8 343.5Z" fill="#00101c" stroke="#000000"></path><path d="M117.5 163.8L179.8 218L181.8 156.8Z" fill="#000a10" stroke="#000000"></path><path d="M684 61.3L616.8 49.3L623.8 106.5Z" fill="#001121" stroke="#000000"></path><path d="M59.3 342.5L106.5 349.5L120.5 291.3Z" fill="#000d15" stroke="#000000"></path><path d="M397.8 0L323.5 0L346.5 42.3Z" fill="#000f1a" stroke="#000000"></path><path d="M731.3 503.3L727.3 436L675 450Z" fill="#000c12" stroke="#000000"></path><path d="M610.8 621.8L629.8 564.5L572.5 563.5Z" fill="#000506" stroke="#000000"></path><path d="M667 510.3L731.3 503.3L675 450Z" fill="#001121" stroke="#000000"></path><path d="M167.8 46.3L160.8 115.5L213 112.5Z" fill="#000506" stroke="#000000"></path><path d="M213 112.5L160.8 115.5L181.8 156.8Z" fill="#000c12" stroke="#000000"></path><path d="M214 44.3L213 112.5L268.3 53.3Z" fill="#000f1a" stroke="#000000"></path><path d="M788.5 157.8L722.3 158.8L720.3 225Z" fill="#000d15" stroke="#000000"></path><path d="M720.3 225L722.3 158.8L673 164.8Z" fill="#000a10" stroke="#000000"></path><path d="M666 121.5L684 61.3L623.8 106.5Z" fill="#000709" stroke="#000000"></path><path d="M122.5 495.3L165.8 517.3L167.8 436Z" fill="#000a10" stroke="#000000"></path><path d="M275.3 574.5L275.3 624.8L327.5 571.5Z" fill="#000f1a" stroke="#000000"></path><path d="M165.8 517.3L211 564.5L236 511.3Z" fill="#000f1a" stroke="#000000"></path><path d="M616.8 49.3L565.5 0L561.5 61.3Z" fill="#00090d" stroke="#000000"></path><path d="M229 0L214 44.3L268.3 53.3Z" fill="#000709" stroke="#000000"></path><path d="M515.3 675L573.5 615.8L497.3 608.8Z" fill="#000a10" stroke="#000000"></path><path d="M497.3 608.8L573.5 615.8L516.3 562.5Z" fill="#000f1a" stroke="#000000"></path><path d="M117.5 124.5L117.5 163.8L160.8 115.5Z" fill="#00090d" stroke="#000000"></path><path d="M160.8 115.5L117.5 163.8L181.8 156.8Z" fill="#000a10" stroke="#000000"></path><path d="M116.5 232L61.3 272.3L120.5 291.3Z" fill="#000f1a" stroke="#000000"></path><path d="M323.5 0L276.3 0L268.3 53.3Z" fill="#000c12" stroke="#000000"></path><path d="M683 611.8L671 552.5L629.8 564.5Z" fill="#00101c" stroke="#000000"></path><path d="M629.8 564.5L671 552.5L667 510.3Z" fill="#000a10" stroke="#000000"></path><path d="M722.3 158.8L718.3 119.5L673 164.8Z" fill="#00101c" stroke="#000000"></path><path d="M616.8 49.3L625.8 0L565.5 0Z" fill="#000c12" stroke="#000000"></path><path d="M118.5 393.8L114.5 463L167.8 436Z" fill="#000a10" stroke="#000000"></path><path d="M58.3 456L114.5 463L118.5 393.8Z" fill="#000506" stroke="#000000"></path><path d="M234 624.8L275.3 624.8L275.3 574.5Z" fill="#000d15" stroke="#000000"></path><path d="M398.8 675L439 621.8L386.8 616.8Z" fill="#00090d" stroke="#000000"></path><path d="M730.3 398.8L778.5 329.5L734.3 328.5Z" fill="#000c12" stroke="#000000"></path><path d="M734.3 328.5L792.5 278.3L719.3 273.3Z" fill="#00090d" stroke="#000000"></path><path d="M722.3 158.8L777.5 106.5L718.3 119.5Z" fill="#001121" stroke="#000000"></path><path d="M794.5 402.8L778.5 329.5L730.3 398.8Z" fill="#001121" stroke="#000000"></path><path d="M114.5 463L122.5 495.3L167.8 436Z" fill="#000c12" stroke="#000000"></path><path d="M165.8 517.3L158.8 551.5L211 564.5Z" fill="#00101f" stroke="#000000"></path><path d="M211 564.5L234 624.8L275.3 574.5Z" fill="#000c12" stroke="#000000"></path><path d="M718.3 119.5L684 61.3L666 121.5Z" fill="#000506" stroke="#000000"></path><path d="M112.5 46.3L117.5 124.5L160.8 115.5Z" fill="#000506" stroke="#000000"></path><path d="M54.3 212L61.3 272.3L116.5 232Z" fill="#001121" stroke="#000000"></path><path d="M671 552.5L731.3 503.3L667 510.3Z" fill="#000d15" stroke="#000000"></path><path d="M727.3 436L794.5 402.8L730.3 398.8Z" fill="#000d15" stroke="#000000"></path><path d="M116.5 557.5L158.8 551.5L165.8 517.3Z" fill="#00090d" stroke="#000000"></path><path d="M573.5 615.8L610.8 621.8L572.5 563.5Z" fill="#000e18" stroke="#000000"></path><path d="M671 552.5L731.3 563.5L731.3 503.3Z" fill="#00101f" stroke="#000000"></path><path d="M557.5 675L610.8 621.8L573.5 615.8Z" fill="#001121" stroke="#000000"></path><path d="M451 675L497.3 608.8L439 621.8Z" fill="#00090d" stroke="#000000"></path><path d="M398.8 675L386.8 616.8L342.5 675Z" fill="#000506" stroke="#000000"></path><path d="M276.3 0L229 0L268.3 53.3Z" fill="#000e18" stroke="#000000"></path><path d="M214 44.3L167.8 46.3L213 112.5Z" fill="#001121" stroke="#000000"></path><path d="M342.5 675L386.8 616.8L339.5 612.8Z" fill="#00090d" stroke="#000000"></path><path d="M839.8 346.5L792.5 278.3L778.5 329.5Z" fill="#000d15" stroke="#000000"></path><path d="M778.5 329.5L792.5 278.3L734.3 328.5Z" fill="#000f1a" stroke="#000000"></path><path d="M54.3 212L116.5 232L117.5 163.8Z" fill="#000506" stroke="#000000"></path><path d="M106.5 349.5L51.3 388.8L118.5 393.8Z" fill="#00101f" stroke="#000000"></path><path d="M114.5 463L58.3 505.3L122.5 495.3Z" fill="#00101f" stroke="#000000"></path><path d="M680 0L625.8 0L616.8 49.3Z" fill="#000a10" stroke="#000000"></path><path d="M158.8 0L167.8 46.3L214 44.3Z" fill="#00090d" stroke="#000000"></path><path d="M61.3 272.3L59.3 342.5L120.5 291.3Z" fill="#000a10" stroke="#000000"></path><path d="M179.8 608.8L234 624.8L211 564.5Z" fill="#00090d" stroke="#000000"></path><path d="M275.3 624.8L342.5 675L339.5 612.8Z" fill="#001121" stroke="#000000"></path><path d="M792.5 278.3L789.5 231L719.3 273.3Z" fill="#000d15" stroke="#000000"></path><path d="M718.3 119.5L722.3 47.3L684 61.3Z" fill="#00101c" stroke="#000000"></path><path d="M276.3 675L342.5 675L275.3 624.8Z" fill="#000f1a" stroke="#000000"></path><path d="M451 675L515.3 675L497.3 608.8Z" fill="#00101f" stroke="#000000"></path><path d="M782.5 453L794.5 402.8L727.3 436Z" fill="#000c12" stroke="#000000"></path><path d="M0 327.5L51.3 388.8L59.3 342.5Z" fill="#000e18" stroke="#000000"></path><path d="M59.3 342.5L51.3 388.8L106.5 349.5Z" fill="#000709" stroke="#000000"></path><path d="M116.5 557.5L179.8 608.8L158.8 551.5Z" fill="#000f1a" stroke="#000000"></path><path d="M797.5 512.3L782.5 453L731.3 503.3Z" fill="#000d15" stroke="#000000"></path><path d="M731.3 503.3L782.5 453L727.3 436Z" fill="#00101c" stroke="#000000"></path><path d="M57.3 161.8L54.3 212L117.5 163.8Z" fill="#001121" stroke="#000000"></path><path d="M0 288.3L0 327.5L59.3 342.5Z" fill="#000506" stroke="#000000"></path><path d="M57.3 161.8L117.5 163.8L117.5 124.5Z" fill="#000c12" stroke="#000000"></path><path d="M158.8 551.5L179.8 608.8L211 564.5Z" fill="#00090d" stroke="#000000"></path><path d="M234 624.8L276.3 675L275.3 624.8Z" fill="#000c12" stroke="#000000"></path><path d="M116.5 557.5L165.8 517.3L122.5 495.3Z" fill="#000a10" stroke="#000000"></path><path d="M515.3 675L557.5 675L573.5 615.8Z" fill="#00101c" stroke="#000000"></path><path d="M610.8 621.8L683 611.8L629.8 564.5Z" fill="#000c12" stroke="#000000"></path><path d="M834.8 211L788.5 157.8L789.5 231Z" fill="#000d15" stroke="#000000"></path><path d="M789.5 231L788.5 157.8L720.3 225Z" fill="#000506" stroke="#000000"></path><path d="M684 61.3L680 0L616.8 49.3Z" fill="#000d15" stroke="#000000"></path><path d="M777.5 106.5L722.3 47.3L718.3 119.5Z" fill="#000709" stroke="#000000"></path><path d="M231 675L276.3 675L234 624.8Z" fill="#00101f" stroke="#000000"></path><path d="M631.8 675L683 611.8L610.8 621.8Z" fill="#000506" stroke="#000000"></path><path d="M51.3 388.8L58.3 456L118.5 393.8Z" fill="#000d15" stroke="#000000"></path><path d="M683 611.8L731.3 563.5L671 552.5Z" fill="#001121" stroke="#000000"></path><path d="M58.3 505.3L116.5 557.5L122.5 495.3Z" fill="#000709" stroke="#000000"></path><path d="M63.3 100.5L57.3 161.8L117.5 124.5Z" fill="#000d15" stroke="#000000"></path><path d="M722.3 47.3L680 0L684 61.3Z" fill="#000c12" stroke="#000000"></path><path d="M788.5 157.8L777.5 106.5L722.3 158.8Z" fill="#000709" stroke="#000000"></path><path d="M722.3 47.3L734.3 0L680 0Z" fill="#001121" stroke="#000000"></path><path d="M229 0L158.8 0L214 44.3Z" fill="#000709" stroke="#000000"></path><path d="M167.8 46.3L112.5 46.3L160.8 115.5Z" fill="#001121" stroke="#000000"></path><path d="M158.8 0L112.5 46.3L167.8 46.3Z" fill="#000709" stroke="#000000"></path><path d="M794.5 402.8L839.8 346.5L778.5 329.5Z" fill="#00090d" stroke="#000000"></path><path d="M852.8 267.3L834.8 211L789.5 231Z" fill="#00090d" stroke="#000000"></path><path d="M788.5 157.8L851.8 99.5L777.5 106.5Z" fill="#000c12" stroke="#000000"></path><path d="M836.8 398.8L839.8 346.5L794.5 402.8Z" fill="#00101c" stroke="#000000"></path><path d="M836.8 398.8L794.5 402.8L833.8 454Z" fill="#001121" stroke="#000000"></path><path d="M165.8 675L234 624.8L179.8 608.8Z" fill="#00101c" stroke="#000000"></path><path d="M165.8 675L231 675L234 624.8Z" fill="#000f1a" stroke="#000000"></path><path d="M58.3 456L58.3 505.3L114.5 463Z" fill="#00090d" stroke="#000000"></path><path d="M103.5 630.8L165.8 675L179.8 608.8Z" fill="#00101f" stroke="#000000"></path><path d="M0 496.3L58.3 505.3L58.3 456Z" fill="#000e18" stroke="#000000"></path><path d="M112.5 46.3L63.3 100.5L117.5 124.5Z" fill="#000e18" stroke="#000000"></path><path d="M782.5 560.5L731.3 503.3L731.3 563.5Z" fill="#000d15" stroke="#000000"></path><path d="M557.5 675L631.8 675L610.8 621.8Z" fill="#000e18" stroke="#000000"></path><path d="M852.8 267.3L789.5 231L792.5 278.3Z" fill="#00101f" stroke="#000000"></path><path d="M833.8 454L794.5 402.8L782.5 453Z" fill="#000f1a" stroke="#000000"></path><path d="M782.5 560.5L797.5 512.3L731.3 503.3Z" fill="#000506" stroke="#000000"></path><path d="M782.5 560.5L731.3 563.5L791.5 625.8Z" fill="#000506" stroke="#000000"></path><path d="M0 288.3L59.3 342.5L61.3 272.3Z" fill="#000e18" stroke="#000000"></path><path d="M51.3 388.8L0 398.8L58.3 456Z" fill="#00101c" stroke="#000000"></path><path d="M0 288.3L61.3 272.3L0 218Z" fill="#000e18" stroke="#000000"></path><path d="M61.3 272.3L54.3 212L0 218Z" fill="#000d15" stroke="#000000"></path><path d="M0 218L54.3 212L0 175.8Z" fill="#000a10" stroke="#000000"></path><path d="M900 294.3L852.8 267.3L839.8 346.5Z" fill="#000f1a" stroke="#000000"></path><path d="M839.8 346.5L852.8 267.3L792.5 278.3Z" fill="#000a10" stroke="#000000"></path><path d="M797.5 512.3L833.8 454L782.5 453Z" fill="#000a10" stroke="#000000"></path><path d="M900 338.5L900 294.3L839.8 346.5Z" fill="#000e18" stroke="#000000"></path><path d="M725.3 630.8L731.3 563.5L683 611.8Z" fill="#00101f" stroke="#000000"></path><path d="M797.5 512.3L856.8 518.3L833.8 454Z" fill="#000a10" stroke="#000000"></path><path d="M0 327.5L0 398.8L51.3 388.8Z" fill="#000506" stroke="#000000"></path><path d="M790.5 45.3L722.3 47.3L777.5 106.5Z" fill="#000c12" stroke="#000000"></path><path d="M790.5 45.3L734.3 0L722.3 47.3Z" fill="#000d15" stroke="#000000"></path><path d="M0 175.8L54.3 212L57.3 161.8Z" fill="#000506" stroke="#000000"></path><path d="M631.8 675L668 675L683 611.8Z" fill="#000d15" stroke="#000000"></path><path d="M668 675L725.3 630.8L683 611.8Z" fill="#000e18" stroke="#000000"></path><path d="M0 99.5L0 175.8L57.3 161.8Z" fill="#000c12" stroke="#000000"></path><path d="M0 496.3L54.3 560.5L58.3 505.3Z" fill="#001121" stroke="#000000"></path><path d="M58.3 505.3L54.3 560.5L116.5 557.5Z" fill="#000a10" stroke="#000000"></path><path d="M851.8 99.5L790.5 45.3L777.5 106.5Z" fill="#00101c" stroke="#000000"></path><path d="M852.8 160.8L788.5 157.8L834.8 211Z" fill="#000709" stroke="#000000"></path><path d="M103.5 630.8L179.8 608.8L116.5 557.5Z" fill="#001121" stroke="#000000"></path><path d="M112.5 46.3L43.3 55.3L63.3 100.5Z" fill="#000c12" stroke="#000000"></path><path d="M63.3 100.5L0 99.5L57.3 161.8Z" fill="#000e18" stroke="#000000"></path><path d="M158.8 0L99.5 0L112.5 46.3Z" fill="#000f1a" stroke="#000000"></path><path d="M0 398.8L0 455L58.3 456Z" fill="#000d15" stroke="#000000"></path><path d="M900 181.8L852.8 160.8L834.8 211Z" fill="#00090d" stroke="#000000"></path><path d="M54.3 560.5L103.5 630.8L116.5 557.5Z" fill="#000506" stroke="#000000"></path><path d="M62.3 0L43.3 55.3L112.5 46.3Z" fill="#000e18" stroke="#000000"></path><path d="M0 455L0 496.3L58.3 456Z" fill="#000d15" stroke="#000000"></path><path d="M47.3 675L120.5 675L103.5 630.8Z" fill="#000506" stroke="#000000"></path><path d="M900 338.5L839.8 346.5L900 384.8Z" fill="#00101f" stroke="#000000"></path><path d="M852.8 267.3L900 221L834.8 211Z" fill="#000c12" stroke="#000000"></path><path d="M900 107.5L851.8 99.5L852.8 160.8Z" fill="#000d15" stroke="#000000"></path><path d="M852.8 160.8L851.8 99.5L788.5 157.8Z" fill="#00090d" stroke="#000000"></path><path d="M900 384.8L839.8 346.5L836.8 398.8Z" fill="#00101c" stroke="#000000"></path><path d="M900 384.8L836.8 398.8L900 452Z" fill="#00101c" stroke="#000000"></path><path d="M43.3 55.3L0 99.5L63.3 100.5Z" fill="#000a10" stroke="#000000"></path><path d="M725.3 630.8L791.5 625.8L731.3 563.5Z" fill="#001121" stroke="#000000"></path><path d="M836.8 567.5L856.8 518.3L797.5 512.3Z" fill="#000e18" stroke="#000000"></path><path d="M668 675L731.3 675L725.3 630.8Z" fill="#000709" stroke="#000000"></path><path d="M103.5 630.8L120.5 675L165.8 675Z" fill="#00090d" stroke="#000000"></path><path d="M43.3 624.8L103.5 630.8L54.3 560.5Z" fill="#000e18" stroke="#000000"></path><path d="M99.5 0L62.3 0L112.5 46.3Z" fill="#00101c" stroke="#000000"></path><path d="M43.3 55.3L0 49.3L0 99.5Z" fill="#000709" stroke="#000000"></path><path d="M836.8 567.5L797.5 512.3L782.5 560.5Z" fill="#000d15" stroke="#000000"></path><path d="M900 452L836.8 398.8L833.8 454Z" fill="#00090d" stroke="#000000"></path><path d="M837.8 0L794.5 0L790.5 45.3Z" fill="#000709" stroke="#000000"></path><path d="M790.5 45.3L794.5 0L734.3 0Z" fill="#000f1a" stroke="#000000"></path><path d="M900 294.3L900 221L852.8 267.3Z" fill="#00101f" stroke="#000000"></path><path d="M777.5 675L791.5 625.8L725.3 630.8Z" fill="#001121" stroke="#000000"></path><path d="M791.5 625.8L836.8 567.5L782.5 560.5Z" fill="#001121" stroke="#000000"></path><path d="M900 221L900 181.8L834.8 211Z" fill="#00101c" stroke="#000000"></path><path d="M851.8 99.5L849.8 60.3L790.5 45.3Z" fill="#000709" stroke="#000000"></path><path d="M900 107.5L849.8 60.3L851.8 99.5Z" fill="#000c12" stroke="#000000"></path><path d="M900 506.3L900 452L856.8 518.3Z" fill="#000c12" stroke="#000000"></path><path d="M856.8 518.3L900 452L833.8 454Z" fill="#00090d" stroke="#000000"></path><path d="M0 575.5L43.3 624.8L54.3 560.5Z" fill="#000f1a" stroke="#000000"></path><path d="M0 0L0 49.3L43.3 55.3Z" fill="#000d15" stroke="#000000"></path><path d="M0 496.3L0 575.5L54.3 560.5Z" fill="#000c12" stroke="#000000"></path><path d="M731.3 675L777.5 675L725.3 630.8Z" fill="#001121" stroke="#000000"></path><path d="M791.5 625.8L837.8 612.8L836.8 567.5Z" fill="#00101f" stroke="#000000"></path><path d="M856.8 675L837.8 612.8L791.5 625.8Z" fill="#000506" stroke="#000000"></path><path d="M900 567.5L900 506.3L856.8 518.3Z" fill="#00101f" stroke="#000000"></path><path d="M900 567.5L856.8 518.3L836.8 567.5Z" fill="#000a10" stroke="#000000"></path><path d="M849.8 60.3L837.8 0L790.5 45.3Z" fill="#001121" stroke="#000000"></path><path d="M900 45.3L837.8 0L849.8 60.3Z" fill="#000506" stroke="#000000"></path><path d="M900 181.8L900 107.5L852.8 160.8Z" fill="#000709" stroke="#000000"></path><path d="M0 575.5L0 612.8L43.3 624.8Z" fill="#000c12" stroke="#000000"></path><path d="M43.3 624.8L47.3 675L103.5 630.8Z" fill="#00090d" stroke="#000000"></path><path d="M62.3 0L0 0L43.3 55.3Z" fill="#000506" stroke="#000000"></path><path d="M0 675L47.3 675L43.3 624.8Z" fill="#000c12" stroke="#000000"></path><path d="M837.8 612.8L900 567.5L836.8 567.5Z" fill="#000a10" stroke="#000000"></path><path d="M900 625.8L900 567.5L837.8 612.8Z" fill="#000506" stroke="#000000"></path><path d="M900 107.5L900 45.3L849.8 60.3Z" fill="#001121" stroke="#000000"></path><path d="M0 612.8L0 675L43.3 624.8Z" fill="#000506" stroke="#000000"></path><path d="M777.5 675L856.8 675L791.5 625.8Z" fill="#000e18" stroke="#000000"></path><path d="M900 45.3L900 0L837.8 0Z" fill="#000709" stroke="#000000"></path><path d="M856.8 675L900 625.8L837.8 612.8Z" fill="#001121" stroke="#000000"></path><path d="M856.8 675L900 675L900 625.8Z" fill="#00101c" stroke="#000000"></path></g></svg>